<svg xmlns="http://www.w3.org/2000/svg" width="28" height="29" viewBox="0 0 28 29" fill="none">
  <path d="M9.10001 2.83325H18.9C22.6333 2.83325 25.6667 5.86659 25.6667 9.59992V19.3999C25.6667 21.1946 24.9538 22.9157 23.6848 24.1847C22.4158 25.4537 20.6946 26.1666 18.9 26.1666H9.10001C5.36668 26.1666 2.33334 23.1333 2.33334 19.3999V9.59992C2.33334 7.80529 3.04626 6.08416 4.31525 4.81516C5.58425 3.54617 7.30538 2.83325 9.10001 2.83325ZM8.86668 5.16659C7.75277 5.16659 6.68448 5.60908 5.89683 6.39674C5.10918 7.18439 4.66668 8.25268 4.66668 9.36659V19.6333C4.66668 21.9549 6.54501 23.8333 8.86668 23.8333H19.1333C20.2473 23.8333 21.3155 23.3908 22.1032 22.6031C22.8908 21.8155 23.3333 20.7472 23.3333 19.6333V9.36659C23.3333 7.04492 21.455 5.16659 19.1333 5.16659H8.86668ZM20.125 6.91659C20.5118 6.91659 20.8827 7.07023 21.1562 7.34372C21.4297 7.61721 21.5833 7.98814 21.5833 8.37492C21.5833 8.76169 21.4297 9.13263 21.1562 9.40612C20.8827 9.67961 20.5118 9.83325 20.125 9.83325C19.7382 9.83325 19.3673 9.67961 19.0938 9.40612C18.8203 9.13263 18.6667 8.76169 18.6667 8.37492C18.6667 7.98814 18.8203 7.61721 19.0938 7.34372C19.3673 7.07023 19.7382 6.91659 20.125 6.91659ZM14 8.66659C15.5471 8.66659 17.0308 9.28117 18.1248 10.3751C19.2188 11.4691 19.8333 12.9528 19.8333 14.4999C19.8333 16.047 19.2188 17.5307 18.1248 18.6247C17.0308 19.7187 15.5471 20.3333 14 20.3333C12.4529 20.3333 10.9692 19.7187 9.87522 18.6247C8.78126 17.5307 8.16668 16.047 8.16668 14.4999C8.16668 12.9528 8.78126 11.4691 9.87522 10.3751C10.9692 9.28117 12.4529 8.66659 14 8.66659ZM14 10.9999C13.0718 10.9999 12.1815 11.3687 11.5251 12.025C10.8688 12.6814 10.5 13.5717 10.5 14.4999C10.5 15.4282 10.8688 16.3184 11.5251 16.9748C12.1815 17.6312 13.0718 17.9999 14 17.9999C14.9283 17.9999 15.8185 17.6312 16.4749 16.9748C17.1313 16.3184 17.5 15.4282 17.5 14.4999C17.5 13.5717 17.1313 12.6814 16.4749 12.025C15.8185 11.3687 14.9283 10.9999 14 10.9999Z" fill="#2678d1"/>
</svg>