<svg xmlns="http://www.w3.org/2000/svg" width="28" height="29" viewBox="0 0 28 29" fill="none">
  <path d="M8.09666 6.33328C8.09635 6.95212 7.85022 7.54549 7.41242 7.98285C6.97461 8.42022 6.381 8.66576 5.76216 8.66545C5.14332 8.66514 4.54995 8.41901 4.11259 7.9812C3.67522 7.5434 3.42968 6.94978 3.42999 6.33095C3.4303 5.71211 3.67643 5.11874 4.11424 4.68137C4.55204 4.24401 5.14565 3.99847 5.76449 3.99878C6.38333 3.99909 6.9767 4.24522 7.41407 4.68302C7.85143 5.12083 8.09697 5.71444 8.09666 6.33328ZM8.16666 10.3933H3.49999V24.9999H8.16666V10.3933ZM15.54 10.3933H10.8967V24.9999H15.4933V17.3349C15.4933 13.0649 21.0583 12.6683 21.0583 17.3349V24.9999H25.6667V15.7483C25.6667 8.54995 17.43 8.81828 15.4933 12.3533L15.54 10.3933Z" fill="#2678d1"/>
</svg>